<svg id="Capa_1" enable-background="new 0 0 497 497" height="512" viewBox="0 0 497 497" width="512" xmlns="http://www.w3.org/2000/svg"><g><path d="m452.681 52.736c-4.182-2.559-8.767-4.525-13.638-5.778-1.254-4.871-3.219-9.456-5.778-13.638-3.116-5.092-10.413-5.092-13.529 0-2.56 4.182-4.525 8.768-5.779 13.638-4.87 1.254-9.455 3.219-13.638 5.778-5.092 3.116-5.092 10.412 0 13.529 4.182 2.559 8.767 4.525 13.638 5.779 1.254 4.87 3.219 9.456 5.778 13.638 3.116 5.092 10.412 5.092 13.529 0 2.559-4.182 4.524-8.767 5.778-13.638 4.87-1.254 9.456-3.219 13.638-5.779 5.093-3.117 5.093-10.413.001-13.529z" fill="#fce3a0"/><g><path d="m497 248.5c0 107.199-67.879 198.545-163 233.4-26.658 9.768-55.457 15.1-85.5 15.1-137.243 0-248.5-111.257-248.5-248.5s111.257-248.5 248.5-248.5c30.022 0 58.8 5.324 85.443 15.079 95.151 34.839 163.057 126.2 163.057 233.421z" fill="#ffce71"/><path d="m171 248.5c0-107.199 67.821-198.566 162.942-233.421-26.658-9.769-55.398-15.079-85.442-15.079-137.243 0-248.5 111.257-248.5 248.5s111.257 248.5 248.5 248.5c30.044 0 58.842-5.331 85.5-15.1-95.121-34.855-163-126.201-163-233.4z" fill="#ffb357"/></g><g fill="#ff8e9e"><path d="m170.14 259.168c-.063 20.152-20.629 36.424-45.934 36.345-25.306-.08-45.769-16.48-45.706-36.633.063-20.152 20.629-36.425 45.935-36.345 25.305.079 45.768 16.48 45.705 36.633z"/><path d="m326.86 259.659c-.063 20.152 20.4 36.553 45.706 36.632s45.871-16.193 45.934-36.345-20.4-36.553-45.706-36.633c-25.305-.079-45.871 16.193-45.934 36.346z"/></g><path d="m285.53 231.493c.072-22.831-16.461-25.028-36.864-25.092-20.402-.064-36.949 2.029-37.02 24.86-.071 22.83 16.41 41.39 36.813 41.454 20.402.064 36.999-18.392 37.071-41.222z" fill="#4c5659"/><g fill="#313d40"><path d="m151.241 190.092c-.032 0-.063 0-.096 0-7.793 0-15.126 3.023-20.657 8.52-5.553 5.518-8.625 12.869-8.649 20.698-.013 4.142 3.334 7.51 7.477 7.523h.024c4.131 0 7.486-3.343 7.5-7.477.012-3.822 1.512-7.411 4.223-10.105s6.351-4.162 10.132-4.159c3.822.012 7.411 1.512 10.105 4.223s4.171 6.309 4.159 10.131c-.013 4.142 3.334 7.51 7.477 7.523h.024c4.131 0 7.487-3.343 7.5-7.477.048-16.16-13.059-29.349-29.219-29.4z"/><path d="m346.192 190.703c-.032 0-.062 0-.093 0-16.118 0-29.257 13.088-29.308 29.217-.013 4.142 3.334 7.511 7.476 7.524 4.16-.021 7.511-3.334 7.524-7.476.025-7.875 6.439-14.265 14.308-14.265h.045c7.891.025 14.29 6.464 14.265 14.354-.013 4.142 3.334 7.51 7.477 7.523h.024c4.131 0 7.487-3.343 7.5-7.477.05-16.16-13.057-29.349-29.218-29.4z"/></g><g fill="#fce3a0"><path d="m117.551 412.666c-6.865-4.202-14.393-7.428-22.389-9.486-2.059-7.996-5.285-15.524-9.486-22.39-5.116-8.359-17.095-8.359-22.21 0-4.202 6.866-7.428 14.394-9.487 22.39-7.996 2.058-15.522 5.284-22.389 9.486-8.359 5.116-8.359 17.094 0 22.21 6.865 4.202 14.393 7.428 22.39 9.487 2.059 7.996 5.284 15.523 9.486 22.389 5.115 8.359 17.094 8.359 22.21 0 4.201-6.866 7.427-14.393 9.486-22.389 7.996-2.059 15.523-5.285 22.389-9.487 8.36-5.116 8.36-17.094 0-22.21z"/><path d="m493.181 460.236c-4.182-2.559-8.767-4.525-13.638-5.778-1.254-4.871-3.219-9.456-5.778-13.638-3.116-5.092-10.413-5.092-13.529 0-2.56 4.182-4.525 8.768-5.779 13.638-4.87 1.254-9.455 3.219-13.638 5.778-5.092 3.116-5.092 10.412 0 13.529 4.182 2.559 8.767 4.525 13.638 5.779 1.254 4.87 3.219 9.456 5.778 13.638 3.116 5.092 10.412 5.092 13.529 0 2.559-4.182 4.524-8.767 5.778-13.638 4.87-1.254 9.456-3.219 13.638-5.779 5.093-3.117 5.093-10.413.001-13.529z"/></g></g></svg>